<svg xmlns="http://www.w3.org/2000/svg" xmlns:xlink="http://www.w3.org/1999/xlink" version="1.1" x="0px" y="0px" viewBox="0 0 100 100" enable-background="new 0 0 100 100" xml:space="preserve"><path d="M89.375,85.375h-6.192V16.641c0-0.829-0.672-1.5-1.5-1.5H65.057c-0.828,0-1.5,0.671-1.5,1.5v68.734h-3.333V56.891  c0-0.828-0.672-1.5-1.5-1.5H42.098c-0.829,0-1.5,0.672-1.5,1.5v28.484h-3.333V32.391c0-0.829-0.671-1.5-1.5-1.5H19.141  c-0.829,0-1.5,0.671-1.5,1.5v52.984h-3.016v-74.75c0-2.209-1.791-4-4-4s-4,1.791-4,4v78.75c0,2.209,1.791,4,4,4h78.75  c2.209,0,4-1.791,4-4S91.584,85.375,89.375,85.375z"></path></svg>