<svg xmlns="http://www.w3.org/2000/svg" xmlns:xlink="http://www.w3.org/1999/xlink" version="1.1" x="0px" y="0px" viewBox="0 0 100 100" enable-background="new 0 0 100 100" xml:space="preserve"><g><g><path d="M61.25,78.687h-8.999v-6.862c12.148-1.141,21.694-11.39,21.694-23.833V35.938c0-1.243-1.008-2.251-2.251-2.251h-2.319    c-1.242,0-2.251,1.008-2.251,2.251s1.009,2.251,2.251,2.251l0.068,9.802c0,10.722-8.721,19.446-19.443,19.446    s-19.448-8.724-19.448-19.446v-9.802h0.073c1.242,0,2.251-1.008,2.251-2.251s-1.009-2.251-2.251-2.251h-2.324    c-1.242,0-2.251,1.008-2.251,2.251v12.053c0,12.444,9.546,22.693,21.699,23.833v6.862H38.75c-7.443,0-13.501,6.058-13.501,13.501    c0,1.242,1.009,2.251,2.251,2.251h45c1.242,0,2.251-1.009,2.251-2.251C74.751,84.744,68.693,78.687,61.25,78.687z M30.034,89.937    c1.001-3.877,4.531-6.748,8.716-6.748H50h11.25c4.185,0,7.715,2.871,8.716,6.748H30.034z"></path><path d="M50,5.562c-7.443,0-13.501,6.057-13.501,13.501v28.125c0,7.443,6.058,13.501,13.501,13.501s13.501-6.058,13.501-13.501    V19.062C63.501,11.619,57.443,5.562,50,5.562z M58.999,47.188c0,4.961-4.038,8.999-8.999,8.999s-8.999-4.038-8.999-8.999V19.062    c0-4.961,4.038-8.999,8.999-8.999s8.999,4.038,8.999,8.999V47.188z"></path></g></g></svg>