<svg xmlns:dc="http://purl.org/dc/elements/1.1/" xmlns:cc="http://creativecommons.org/ns#" xmlns:rdf="http://www.w3.org/1999/02/22-rdf-syntax-ns#" xmlns:svg="http://www.w3.org/2000/svg" xmlns="http://www.w3.org/2000/svg" xmlns:sodipodi="http://sodipodi.sourceforge.net/DTD/sodipodi-0.dtd" xmlns:inkscape="http://www.inkscape.org/namespaces/inkscape" version="1.1" x="0px" y="0px" viewBox="0 0 100 100"><g transform="translate(0,-952.36218)"><path d="m 33,975.36217 0,2 7.46875,0 -20.15625,19.25002 1.375,1.4687 L 42,978.70592 l 0,7.65627 2,0 0,-10.00002 0,-1 -1,0 -10,0 z m 31,0 0,1 0,51.00003 -6,0 0,-34.00001 0,-1 -1,0 -14,0 -1,0 0,1 0,34.00001 -6,0 0,-17 0,-1 -1,0 -14,0 -1,0 0,1 0,17 -5,0 0,2 70,0 0,-2 -5,0 0,-51.00003 0,-1 -1,0 -14,0 -1,0 z m 2,2 12,0 0,50.00003 -12,0 0,-50.00003 z m -22,17.00002 12,0 0,33.00001 -12,0 0,-33.00001 z m -22,17.00001 12,0 0,16 -12,0 0,-16 z" style="text-indent:0;text-transform:none;direction:ltr;block-progression:tb;baseline-shift:baseline;color:#000000;enable-background:accumulate;" fill="#000000" fill-opacity="1" stroke="none" marker="none" visibility="visible" display="inline" overflow="visible"></path></g></svg>