<svg xmlns:dc="http://purl.org/dc/elements/1.1/" xmlns:cc="http://creativecommons.org/ns#" xmlns:rdf="http://www.w3.org/1999/02/22-rdf-syntax-ns#" xmlns:svg="http://www.w3.org/2000/svg" xmlns="http://www.w3.org/2000/svg" xmlns:sodipodi="http://sodipodi.sourceforge.net/DTD/sodipodi-0.dtd" xmlns:inkscape="http://www.inkscape.org/namespaces/inkscape" viewBox="0 0 100 100" version="1.1" x="0px" y="0px"><g transform="translate(0,-952.3622)"><path style="text-indent:0;text-transform:none;direction:ltr;block-progression:tb;baseline-shift:baseline;color:#000000;enable-background:accumulate;" d="m 84.724796,966.37199 -22.168082,3.13629 c -0.23079,0.0417 -0.447422,0.15816 -0.609271,0.32768 L 43.341251,988.4665 c -4.106096,0 -8.22676,0 -12.326016,0 -0.263226,0.022 -0.517413,0.14 -0.703005,0.3276 l -12.607217,12.6388 c -0.633096,0.6061 -0.12691,1.9017 0.749871,1.9193 l 12.232282,0 c 6.7337,6.7411 11.708812,11.5456 18.371857,18.256 l 0,12.1707 c -0.01959,0.8913 1.303913,1.4394 1.921546,0.7958 l 12.654085,-12.6388 c 0.192075,-0.2155 0.295322,-0.5077 0.281202,-0.7958 l 0,-12.1239 18.653059,-18.6773 c 0.169726,-0.1617 0.286373,-0.378 0.328068,-0.6086 l 3.093221,-22.09443 c 0.09986,-0.68403 -0.580556,-1.36361 -1.265408,-1.26388 z m -1.124808,2.38733 -2.858886,20.22208 c 0,0 -12.310393,12.3579 -18.46559,18.5369 -0.06539,0.066 -0.09765,0.079 -0.140601,0.094 -5.998974,1.9816 -17.996921,5.9449 -17.996921,5.9449 l -5.295969,-5.2895 c 0,0 3.905582,-11.8899 5.858373,-17.8348 0.05738,-0.1747 0.151054,-0.3381 0.281202,-0.4681 6.10833,-6.1009 18.324989,-18.30284 18.324989,-18.30284 z m -41.336677,21.90728 -5.202235,15.8687 -5.155368,-5.1024 c -0.208189,-0.2085 -0.501873,-0.3293 -0.796739,-0.3276 l -9.9358,0 10.40447,-10.3919 z m 19.449797,19.3794 0,10.626 -10.40447,10.3919 0,-9.9238 c 0.0016,-0.2945 -0.119245,-0.5878 -0.328069,-0.7958 l -5.014767,-4.9619 z" fill="#000000" fill-opacity="1" stroke="none" marker="none" visibility="visible" display="inline" overflow="visible"></path><path style="text-indent:0;text-transform:none;direction:ltr;block-progression:tb;baseline-shift:baseline;color:#000000;enable-background:accumulate;" d="m 30.968369,1013.7632 a 1.1160624,1.1147138 0 0 0 -0.562404,1.9192 l 6.327043,6.2727 a 1.1160624,1.1147138 0 1 0 1.593477,-1.5448 l -6.327042,-6.3193 a 1.1160624,1.1147138 0 0 0 -1.031074,-0.3278 z" fill="#000000" fill-opacity="1" stroke="none" marker="none" visibility="visible" display="inline" overflow="visible"></path><path style="text-indent:0;text-transform:none;direction:ltr;block-progression:tb;baseline-shift:baseline;color:#000000;enable-background:accumulate;" d="m 24.12579,1018.9593 a 1.1160624,1.1147138 0 0 0 -0.562404,0.3276 l -9.139061,9.2217 a 1.1160624,1.1147138 0 1 0 1.54661,1.5914 l 9.185929,-9.2683 a 1.1160624,1.1147138 0 0 0 -1.031074,-1.8724 z" fill="#000000" fill-opacity="1" stroke="none" marker="none" visibility="visible" display="inline" overflow="visible"></path><path style="text-indent:0;text-transform:none;direction:ltr;block-progression:tb;baseline-shift:baseline;color:#000000;enable-background:accumulate;" d="m 32.186911,1026.7765 a 1.1160624,1.1147138 0 0 0 -0.656138,0.3276 l -9.232795,9.2686 a 1.1160624,1.1147138 0 1 0 1.54661,1.5914 l 9.232795,-9.2683 a 1.1160624,1.1147138 0 0 0 -0.890472,-1.9193 z" fill="#000000" fill-opacity="1" stroke="none" marker="none" visibility="visible" display="inline" overflow="visible"></path><path style="text-indent:0;text-transform:none;direction:ltr;block-progression:tb;baseline-shift:baseline;color:#000000;enable-background:accumulate;" d="m 65.8125,981.9247 c -1.170386,-0.1206 -2.415646,0.27895 -3.5,1.15625 a 1.125112,1.125112 0 0 0 -0.03125,0 c -0.831374,0.7253 -1.256883,1.73095 -1.625,2.59375 -0.0301,0.0706 -0.03435,0.11904 -0.0625,0.1875 l -0.625,-0.625 a 1.125112,1.125112 0 0 0 -0.8125,-0.34375 1.125112,1.125112 0 0 0 -0.78125,1.9375 l 1.375,1.375 c -0.06256,0.17056 -0.108261,0.30881 -0.1875,0.5 -0.308305,0.7438 -0.829345,1.5557 -1,1.6875 -0.247179,0.1911 -1.309512,0.5043 -2.21875,0.625 -0.909238,0.1208 -1.65625,0.125 -1.65625,0.125 a 1.1259761,1.1259761 0 1 0 -0.09375,2.25 c 0,0 0.452045,0.043 0.96875,0.15625 0.516705,0.113 1.071485,0.4152 1.03125,0.375 -0.04013,-0.04 0.356056,0.6428 0.625,1.375 0.268944,0.7322 0.422923,1.51665 1.125,2.21875 0.702139,0.7022 1.487076,0.82245 2.15625,0.96875 0.669174,0.1463 1.21875,0.21865 1.21875,0.21875 a 1.1303043,1.1303043 0 1 0 0.21875,-2.25 c 0,0 -0.452045,-0.043 -0.96875,-0.15625 -0.516705,-0.113 -1.071486,-0.4152 -1.03125,-0.375 0.04013,0.04 -0.356056,-0.6428 -0.625,-1.375 -0.200955,-0.5471 -0.49333,-1.11135 -0.84375,-1.65625 0.510068,-0.1571 1.016132,-0.36895 1.46875,-0.71875 0.786674,-0.60763 1.226704,-1.43841 1.5625,-2.21875 l 1.3125,1.3125 a 1.1269514,1.1269514 0 1 0 1.59375,-1.59375 l -2.0625,-2.0625 c 0.08444,-0.26345 0.193936,-0.63816 0.375,-1.0625 0.310848,-0.7285 0.814154,-1.51345 1.03125,-1.71875 0.0046,0 0.02686,-0.0283 0.03125,-0.0312 0.68672,-0.5422 1.261354,-0.6818 1.8125,-0.625 0.562622,0.058 1.142476,0.3354 1.6875,0.875 0.599133,0.5932 0.846038,1.12645 0.875,1.65625 0.02896,0.5297 -0.172604,1.14395 -0.71875,1.90625 a 1.1315996,1.1315996 0 1 0 1.84375,1.3125 c 0.755876,-1.0551 1.188068,-2.19015 1.125,-3.34375 -0.06307,-1.1537 -0.637975,-2.2406 -1.53125,-3.125 -0.831343,-0.8231 -1.892114,-1.41065 -3.0625,-1.53125 z" fill="#000000" fill-opacity="1" stroke="none" marker="none" visibility="visible" display="inline" overflow="visible"></path></g></svg>