<svg xmlns="http://www.w3.org/2000/svg" xmlns:xlink="http://www.w3.org/1999/xlink" version="1.1" x="0px" y="0px" viewBox="0 0 100 100" enable-background="new 0 0 100 100" xml:space="preserve"><path d="M95.948,58.693L62.236,9.725c-0.483-0.703-1.276-1.128-2.129-1.142c-0.86-0.033-1.662,0.384-2.168,1.071L15.972,66.471  l-0.538-0.783c-0.826-1.199-2.47-1.504-3.67-0.678l-7.035,4.842c-0.577,0.396-0.973,1.006-1.1,1.694s0.024,1.399,0.421,1.978  l11.537,16.754c0.397,0.576,1.007,0.973,1.696,1.1c0.159,0.029,0.319,0.044,0.479,0.044c0.531,0,1.054-0.161,1.497-0.466  l7.031-4.842c1.201-0.827,1.504-2.471,0.677-3.672l-0.538-0.781l13.317-3.703l1.615,5.617c0.333,1.156,1.389,1.91,2.536,1.91  c0.241,0,0.487-0.034,0.73-0.104l15.88-4.563c1.401-0.402,2.21-1.865,1.81-3.267l-1.562-5.435l33.729-9.383  c0.822-0.228,1.482-0.838,1.774-1.642C96.547,60.289,96.434,59.396,95.948,58.693z M18.439,85.107L9.896,72.702l2.686-1.847  l0.192,0.278l8.147,11.834l0.201,0.292L18.439,85.107z M45.706,79.577l-0.873-3.035l10.833-3.015l0.846,2.941L45.706,79.577z   M58.342,67.305l-18.9,5.256l-16.179,4.5l-0.928,0.258l-3.769-5.475l0.572-0.775l40.848-55.301l29.516,42.872L58.342,67.305z"></path><path d="M58.303,25.633c-0.982-0.757-2.396-0.574-3.154,0.41l-30.626,39.77c-0.758,0.984-0.574,2.396,0.41,3.154  c0.409,0.312,0.892,0.467,1.371,0.467c0.673,0,1.34-0.302,1.783-0.877l30.627-39.77C59.471,27.803,59.286,26.391,58.303,25.633z"></path></svg>