<svg xmlns="http://www.w3.org/2000/svg" xmlns:xlink="http://www.w3.org/1999/xlink" version="1.1" x="0px" y="0px" viewBox="0 0 100 100" enable-background="new 0 0 100 100" xml:space="preserve"><g><polygon points="88.029,81.508 88.029,37.834 71.843,37.834 71.843,81.508 68.082,81.508 68.082,60.834 51.895,60.834    51.895,81.508 48.134,81.508 48.134,51.168 31.948,51.168 31.948,81.508 28.186,81.508 28.186,66.834 12,66.834 12,81.508    8.106,81.508 8.106,15.658 5.345,15.658 5.345,79.403 5.345,79.656 5.345,80.124 5.345,84.269 8.397,84.269 8.451,84.269    8.55,84.269 92.864,84.269 92.864,81.508  "></polygon><path d="M39.698,33.311l17.448,6.624c0.341,0.128,0.724,0.062,1.002-0.173L82.59,19.016l-0.99,8.337l1.988,0.234l1.414-11.927   l-11.999-0.544l-0.092,2l8.382,0.378l-23.99,20.362l-17.448-6.624c-0.339-0.128-0.725-0.062-1.003,0.173L14.59,52.054l1.296,1.522   L39.698,33.311z"></path></g></svg>