<svg xmlns="http://www.w3.org/2000/svg" xmlns:xlink="http://www.w3.org/1999/xlink" version="1.1" x="0px" y="0px" viewBox="1972.615 -92.891 91.146 100" enable-background="new 1972.615 -92.891 91.146 100" xml:space="preserve"><path d="M2048.965-57.547l12.971-8.757c1.896-1.282,2.396-3.859,1.115-5.758c-1.281-1.897-3.859-2.397-5.758-1.117l-8.574,5.79  v9.982C2048.801-57.454,2048.885-57.494,2048.965-57.547z"></path><path d="M2057.752-77.776c1.824-1.383,2.184-3.985,0.799-5.809c-1.381-1.825-3.984-2.184-5.811-0.8l-4.021,3.049v10.407  L2057.752-77.776z"></path><path d="M2057.178-61.732l-8.461,6.142v9.945c0.443-0.129,0.873-0.33,1.268-0.617l12.064-8.757c1.854-1.345,2.266-3.939,0.92-5.792  C2061.623-62.666,2059.031-63.075,2057.178-61.732z"></path><path d="M2049.094-33.735l11.629-8.507c1.848-1.354,2.25-3.947,0.896-5.795c-1.352-1.849-3.945-2.251-5.795-0.899l-7.105,5.199  v10.231C2048.844-33.578,2048.973-33.647,2049.094-33.735z"></path><path d="M2006.73-26.974v-26.8c-1.422,1.217-3.518,3.295-6.709,6.952l-1.051-8.704c6.896-8.417,6.84-14.893,6.807-15.64  c-0.074-1.752-1.244-3.268-2.92-3.786c-1.676-0.517-3.496,0.075-4.545,1.481l-9.592,12.839c-0.283,0.382-0.502,0.81-0.643,1.267  l-4.023,13.127l-0.168,0.449c-2.105,5.612-4.281,11.409-5.105,19.811l-5.148,6.274c-0.387,0.472-0.664,1.021-0.814,1.613  c-1.535,6.061,5.809,22.182,16.412,25.055c0.355,0.098,0.721,0.145,1.084,0.145c0.412,0,0.824-0.062,1.221-0.184l11.902-3.668  c15.52-0.654,30.113-17.277,36.111-25.049h-28.121C2008.838-21.789,2006.73-24.115,2006.73-26.974z"></path><path d="M2044.018-92.891h-32.59c-1.449,0-2.625,1.392-2.625,3.11v34.514v28.293c0,1.719,1.176,3.11,2.625,3.11h29.676h2.914  c1.449,0,2.627-1.393,2.627-3.11v-5.963v-9.284v-3.356v-8.508v-2.752v-9.151v-3.565v-10.211v-10.017  C2046.645-91.499,2045.469-92.891,2044.018-92.891z M2026.082-89.089h5.357c0.572,0,1.037,0.463,1.037,1.037  c0,0.574-0.465,1.037-1.037,1.037h-5.357c-0.572,0-1.035-0.463-1.035-1.037C2025.047-88.625,2025.51-89.089,2026.082-89.089z   M2014.055-37.341v-16.943v-28.24h27.34v7.31v3.673v34.2h-25.307H2014.055z M2028.59-26.963c-2.041,0-3.693-1.652-3.693-3.693  c0-0.56,0.133-1.084,0.355-1.558c0.588-1.259,1.854-2.136,3.338-2.136c1.492,0,2.773,0.893,3.355,2.168  c0.211,0.466,0.336,0.979,0.336,1.525C2032.281-28.615,2030.629-26.963,2028.59-26.963z"></path><path d="M2039.32-65.751c-0.354-0.635-1.023-1.07-1.805-1.07h-3.48l0.295-2.799c0.121-1.138-0.705-2.16-1.844-2.28  c-1.123-0.11-2.16,0.705-2.281,1.844l-0.342,3.235h-3.355l0.295-2.799c0.121-1.138-0.705-2.16-1.846-2.28  c-1.115-0.11-2.158,0.705-2.279,1.844l-0.342,3.235h-2.531c-1.146,0-2.074,0.928-2.074,2.073c0,1.146,0.928,2.074,2.074,2.074h2.092  l-0.357,3.382h-3.607c-0.779,0-1.449,0.436-1.803,1.07c-0.166,0.299-0.271,0.638-0.271,1.003c0,0.365,0.105,0.705,0.271,1.003  c0.354,0.635,1.023,1.07,1.803,1.07h3.168l-0.295,2.799c-0.121,1.138,0.705,2.16,1.844,2.28c0.074,0.007,0.146,0.011,0.221,0.011  c1.047,0,1.945-0.791,2.061-1.855l0.342-3.235h3.357l-0.297,2.799c-0.119,1.138,0.707,2.16,1.846,2.28  c0.074,0.007,0.146,0.011,0.221,0.011c1.047,0,1.945-0.791,2.061-1.855l0.342-3.235h2.844c1.146,0,2.074-0.928,2.074-2.073  s-0.93-2.074-2.074-2.074h-2.404l0.357-3.382h3.92c0.779,0,1.451-0.436,1.805-1.07c0.166-0.298,0.27-0.638,0.27-1.003  C2039.59-65.114,2039.486-65.453,2039.32-65.751z M2029.068-59.292h-3.357l0.355-3.382h3.359L2029.068-59.292z"></path></svg>