<svg xmlns="http://www.w3.org/2000/svg" viewBox="0 0 64 64" x="0px" y="0px"><title>partnership</title><g><path d="M24.485,41.514a10.95,10.95,0,0,0,.936-4.431,11.771,11.771,0,0,0-12-11.5,11.771,11.771,0,0,0-12,11.5,11.009,11.009,0,0,0,.74,3.95l.008.033,3.275,12.37L3.78,60.779A1,1,0,0,0,4.755,62H18.623a1,1,0,0,0,.971-1.239L18.172,55H23.23A2.772,2.772,0,0,0,26,52.23V47.412l.868-.875a1,1,0,0,0,.122-1.258ZM23.23,53H16.9a1,1,0,0,0-.971,1.239L17.346,60H6.007L7.45,53.638a1.012,1.012,0,0,0-.009-.477L4.143,40.7a1.044,1.044,0,0,0-.065-.263,9.035,9.035,0,0,1-.656-3.357,9.771,9.771,0,0,1,10-9.5,9.771,9.771,0,0,1,10,9.5,9.013,9.013,0,0,1-.98,4.078,1,1,0,0,0,.049.974.792.792,0,0,0,.083.114l2.3,3.459-.584.588A1,1,0,0,0,24,47v.9a5.831,5.831,0,0,1-3.9,1.079,6.215,6.215,0,0,1-4.281-2.584,1,1,0,1,0-1.63,1.158,8.244,8.244,0,0,0,5.72,3.416c.239.023.477.034.716.034A7.746,7.746,0,0,0,24,50.21v2.02A.77.77,0,0,1,23.23,53Z"></path><path d="M50.579,25.583a12.151,12.151,0,0,0-9.616,4.65.987.987,0,0,0-.01-.536l-1.5-4.7H48.5a5.491,5.491,0,0,0,5.49-5.357,8.9,8.9,0,0,0-.26-1.827h0q-.012-.05-.027-.1a9.012,9.012,0,0,0-3.712-5.2,9.873,9.873,0,0,0-6.041-8.746,10.187,10.187,0,0,0-9.98,1.257,12.011,12.011,0,0,0-19.894,7.518A8.035,8.035,0,0,0,9.51,17.165a1.048,1.048,0,0,0-.063.189A7.533,7.533,0,0,0,9,19.724c0,.028,0,.088,0,.116A5.5,5.5,0,0,0,14.49,25H24.746l-.735,4.851a1,1,0,0,0,1.64.908l6.391-5.478L39.4,30.8a.993.993,0,0,0,1.109.05,11.081,11.081,0,0,0-1.93,6.233,10.95,10.95,0,0,0,.936,4.431L37.01,45.279a1,1,0,0,0,.122,1.258l.868.875V52.23A2.772,2.772,0,0,0,40.77,55h5.058l-1.422,5.761A1,1,0,0,0,45.377,62H59.245a1,1,0,0,0,.975-1.221l-1.665-7.343,3.275-12.37.008-.033a11.005,11.005,0,0,0,.74-3.95A11.771,11.771,0,0,0,50.579,25.583ZM37.138,24.3l.961,3.021L32.6,23.2a1,1,0,0,0-1.251.041L26.392,27.49l.506-3.341A1,1,0,0,0,25.909,23H14.49A3.486,3.486,0,0,1,11,19.776a5.446,5.446,0,0,1,.364-1.838.918.918,0,0,0,.037-.12,6.03,6.03,0,0,1,3.886-3.576H15.3a6.04,6.04,0,0,1,5.892,1.472,1,1,0,0,0,1.4-1.426,8.023,8.023,0,0,0-6.407-2.226A10.018,10.018,0,0,1,25.99,4,9.873,9.873,0,0,1,33.2,7.062h0a9.96,9.96,0,0,1,2.119,3.3A1,1,0,0,0,36.25,11a.985.985,0,0,0,.363-.068,1,1,0,0,0,.569-1.295A11.865,11.865,0,0,0,35.358,6.5a8.1,8.1,0,0,1,7.852-.87,7.756,7.756,0,0,1,4.622,5.848,8.9,8.9,0,0,0-9.854,2.9,1,1,0,0,0,1.564,1.248A6.944,6.944,0,0,1,45,13a6.869,6.869,0,0,1,3.492.941l.005,0,.005,0a6.989,6.989,0,0,1,3.27,4.3c.007.027.015.056.025.083a6.882,6.882,0,0,1,.194,1.314A3.5,3.5,0,0,1,48.5,23H38.091a1,1,0,0,0-.953,1.3ZM59.922,40.44a1.044,1.044,0,0,0-.065.263l-3.3,12.458a1.012,1.012,0,0,0-.009.477L57.993,60H46.654l1.422-5.761A1,1,0,0,0,47.105,53H40.77a.77.77,0,0,1-.77-.77V50.21A7.747,7.747,0,0,0,43.38,51q.357,0,.716-.034a8.244,8.244,0,0,0,5.719-3.416,1,1,0,1,0-1.63-1.158,6.214,6.214,0,0,1-4.28,2.584A5.828,5.828,0,0,1,40,47.9V47a1,1,0,0,0-.29-.7l-.584-.588L41.4,42.285a1.058,1.058,0,0,0,.114-.15,1,1,0,0,0,.042-.974,9.013,9.013,0,0,1-.98-4.078,10.013,10.013,0,0,1,20,0A9.035,9.035,0,0,1,59.922,40.44Z"></path><rect x="49" y="4" width="2" height="2"></rect><rect x="53" y="4" width="2" height="2"></rect><rect x="51" y="2" width="2" height="2"></rect><rect x="51" y="6" width="2" height="2"></rect><rect x="55" y="11" width="2" height="2"></rect><rect x="59" y="11" width="2" height="2"></rect><rect x="57" y="9" width="2" height="2"></rect><rect x="57" y="13" width="2" height="2"></rect><rect x="13" y="4" width="2" height="2"></rect><rect x="9" y="4" width="2" height="2"></rect><rect x="11" y="2" width="2" height="2"></rect><rect x="11" y="6" width="2" height="2"></rect><rect x="7" y="11" width="2" height="2"></rect><rect x="3" y="11" width="2" height="2"></rect><rect x="5" y="9" width="2" height="2"></rect><rect x="5" y="13" width="2" height="2"></rect></g></svg>